<?xml version="1.0" encoding="UTF-8"?>
<svg xmlns="http://www.w3.org/2000/svg" xmlns:xlink="http://www.w3.org/1999/xlink" width="48px" height="48px" viewBox="0 0 48 48" version="1.1">
<defs>
<radialGradient id="radial0" gradientUnits="userSpaceOnUse" cx="6.601" cy="99.765999" fx="6.601" fy="99.765999" r="129.501999" gradientTransform="matrix(0.470588,0,0,0.470588,0,0)">
<stop offset="0.09" style="stop-color:rgb(98.039216%,56.078431%,12.941176%);stop-opacity:1;"/>
<stop offset="0.78" style="stop-color:rgb(84.705882%,17.647059%,49.411765%);stop-opacity:1;"/>
</radialGradient>
<radialGradient id="radial1" gradientUnits="userSpaceOnUse" cx="70.652" cy="96.489998" fx="70.652" fy="96.489998" r="113.962997" gradientTransform="matrix(0.470588,0,0,0.470588,0,0)">
<stop offset="0.64" style="stop-color:rgb(54.901961%,22.745098%,66.666667%);stop-opacity:0;"/>
<stop offset="1" style="stop-color:rgb(54.901961%,22.745098%,66.666667%);stop-opacity:1;"/>
</radialGradient>
</defs>
<g id="surface1">
<path style=" stroke:none;fill-rule:nonzero;fill:url(#radial0);" d="M 12.171875 47.832031 C 10.316406 47.808594 8.476562 47.46875 6.734375 46.824219 C 5.464844 46.355469 4.3125 45.605469 3.367188 44.632812 C 2.394531 43.691406 1.644531 42.539062 1.175781 41.269531 C 0.53125 39.527344 0.191406 37.6875 0.171875 35.832031 C 0.0273438 32.746094 0 31.820312 0 24 C 0 16.179688 0.03125 15.257812 0.167969 12.167969 C 0.191406 10.3125 0.53125 8.476562 1.175781 6.734375 C 1.648438 5.464844 2.394531 4.3125 3.367188 3.367188 C 4.308594 2.394531 5.460938 1.644531 6.734375 1.175781 C 8.472656 0.53125 10.3125 0.191406 12.171875 0.167969 C 15.257812 0.0273438 16.183594 0 24 0 C 31.816406 0 32.742188 0.03125 35.832031 0.167969 C 37.6875 0.191406 39.523438 0.53125 41.265625 1.175781 C 42.539062 1.644531 43.6875 2.394531 44.632812 3.367188 C 45.605469 4.3125 46.355469 5.460938 46.824219 6.734375 C 47.46875 8.472656 47.808594 10.3125 47.832031 12.171875 C 47.972656 15.257812 48 16.183594 48 24 C 48 31.816406 47.972656 32.742188 47.832031 35.832031 C 47.808594 37.6875 47.46875 39.527344 46.824219 41.269531 C 45.839844 43.820312 43.820312 45.839844 41.265625 46.824219 C 39.527344 47.46875 37.6875 47.808594 35.828125 47.832031 C 32.742188 47.972656 31.816406 48 24 48 C 16.183594 48 15.257812 47.972656 12.171875 47.832031 "/>
<path style=" stroke:none;fill-rule:nonzero;fill:url(#radial1);" d="M 12.171875 47.832031 C 10.316406 47.808594 8.476562 47.46875 6.734375 46.824219 C 5.464844 46.355469 4.3125 45.605469 3.367188 44.632812 C 2.394531 43.691406 1.644531 42.539062 1.175781 41.269531 C 0.53125 39.527344 0.191406 37.6875 0.171875 35.832031 C 0.0273438 32.746094 0 31.820312 0 24 C 0 16.179688 0.03125 15.257812 0.167969 12.167969 C 0.191406 10.3125 0.53125 8.476562 1.175781 6.734375 C 1.648438 5.464844 2.394531 4.3125 3.367188 3.367188 C 4.308594 2.394531 5.460938 1.644531 6.734375 1.175781 C 8.472656 0.53125 10.3125 0.191406 12.171875 0.167969 C 15.257812 0.0273438 16.183594 0 24 0 C 31.816406 0 32.742188 0.03125 35.832031 0.167969 C 37.6875 0.191406 39.523438 0.53125 41.265625 1.175781 C 42.539062 1.644531 43.6875 2.394531 44.632812 3.367188 C 45.605469 4.3125 46.355469 5.460938 46.824219 6.734375 C 47.46875 8.472656 47.808594 10.3125 47.832031 12.171875 C 47.972656 15.257812 48 16.183594 48 24 C 48 31.816406 47.972656 32.742188 47.832031 35.832031 C 47.808594 37.6875 47.46875 39.527344 46.824219 41.269531 C 45.839844 43.820312 43.820312 45.839844 41.265625 46.824219 C 39.527344 47.46875 37.6875 47.808594 35.828125 47.832031 C 32.742188 47.972656 31.816406 48 24 48 C 16.183594 48 15.257812 47.972656 12.171875 47.832031 "/>
<path style=" stroke:none;fill-rule:nonzero;fill:rgb(100%,100%,100%);fill-opacity:1;" d="M 18.105469 24.101562 C 18.105469 20.820312 20.769531 18.160156 24.050781 18.160156 C 27.335938 18.160156 29.996094 20.820312 29.996094 24.101562 C 29.996094 27.386719 27.332031 30.046875 24.050781 30.046875 C 20.765625 30.046875 18.105469 27.382812 18.105469 24.101562 M 14.894531 24.101562 C 14.894531 29.160156 18.992188 33.257812 24.050781 33.257812 C 29.105469 33.257812 33.207031 29.160156 33.207031 24.101562 C 33.207031 19.046875 29.105469 14.945312 24.050781 14.945312 C 18.992188 14.945312 14.894531 19.042969 14.894531 24.101562 M 31.429688 14.582031 C 31.429688 15.765625 32.386719 16.722656 33.566406 16.722656 C 34.75 16.722656 35.707031 15.765625 35.707031 14.585938 C 35.710938 13.402344 34.75 12.445312 33.570312 12.445312 C 32.390625 12.445312 31.429688 13.402344 31.429688 14.582031 M 16.847656 38.617188 C 15.714844 38.605469 14.59375 38.398438 13.535156 38.003906 C 11.980469 37.40625 10.75 36.175781 10.148438 34.621094 C 9.757812 33.5625 9.550781 32.441406 9.539062 31.3125 C 9.453125 29.429688 9.433594 28.867188 9.433594 24.105469 C 9.433594 19.34375 9.453125 18.777344 9.539062 16.898438 C 9.550781 15.765625 9.757812 14.648438 10.148438 13.585938 C 10.75 12.03125 11.980469 10.800781 13.535156 10.203125 C 14.59375 9.808594 15.714844 9.601562 16.847656 9.589844 C 18.726562 9.503906 19.289062 9.484375 24.050781 9.484375 C 28.8125 9.484375 29.375 9.503906 31.257812 9.589844 C 32.386719 9.605469 33.507812 9.8125 34.570312 10.203125 C 36.125 10.800781 37.355469 12.03125 37.953125 13.585938 C 38.347656 14.648438 38.554688 15.765625 38.566406 16.898438 C 38.652344 18.78125 38.667969 19.34375 38.667969 24.105469 C 38.667969 28.867188 38.652344 29.429688 38.566406 31.3125 C 38.550781 32.441406 38.34375 33.5625 37.953125 34.625 C 37.355469 36.179688 36.125 37.40625 34.570312 38.007812 C 33.507812 38.398438 32.386719 38.605469 31.257812 38.617188 C 29.378906 38.703125 28.8125 38.722656 24.050781 38.722656 C 19.289062 38.722656 18.726562 38.703125 16.847656 38.617188 M 16.699219 6.378906 C 15.21875 6.40625 13.753906 6.6875 12.371094 7.207031 C 9.972656 8.132812 8.082031 10.027344 7.152344 12.421875 C 6.636719 13.808594 6.355469 15.273438 6.324219 16.753906 C 6.238281 18.652344 6.21875 19.261719 6.21875 24.105469 C 6.21875 28.945312 6.238281 29.554688 6.324219 31.457031 C 6.355469 32.9375 6.636719 34.398438 7.152344 35.785156 C 8.082031 38.179688 9.972656 40.074219 12.371094 41 C 13.753906 41.519531 15.21875 41.800781 16.699219 41.828125 C 18.601562 41.914062 19.207031 41.9375 24.050781 41.9375 C 28.894531 41.9375 29.5 41.917969 31.402344 41.828125 C 32.882812 41.800781 34.347656 41.519531 35.730469 41 C 38.128906 40.074219 40.023438 38.179688 40.949219 35.785156 C 41.46875 34.398438 41.746094 32.9375 41.777344 31.457031 C 41.863281 29.554688 41.882812 28.945312 41.882812 24.105469 C 41.882812 19.261719 41.863281 18.652344 41.777344 16.753906 C 41.746094 15.273438 41.46875 13.808594 40.949219 12.421875 C 40.023438 10.027344 38.128906 8.132812 35.734375 7.207031 C 34.347656 6.6875 32.882812 6.40625 31.402344 6.378906 C 29.503906 6.292969 28.894531 6.269531 24.054688 6.269531 C 19.210938 6.269531 18.601562 6.292969 16.699219 6.378906 "/>
</g>
</svg>
